<svg xmlns="http://www.w3.org/2000/svg" viewBox="0 0 24 24">
  <path d="M21,5v14c0,2.8-2.2,5-5,5h-8c-2.8,0-5-2.2-5-5V5C3,2.2,5.2,0,8,0h8c2.8,0,5,2.2,5,5ZM19,5c0-1.7-1.3-3-3-3h-8c-1.7,0-3,1.3-3,3v14c0,1.7,1.3,3,3,3h8c1.7,0,3-1.3,3-3V5ZM7,9.5c0-.6.4-1,.8-1h8.4c.4,0,.8.4.8,1s-.4,1-.8,1H7.8c-.4,0-.8-.4-.8-1ZM7,5.5c0-.6.4-1,.8-1h2.7c.5,0,.8.4.8,1s-.4,1-.8,1h-2.7c-.5,0-.8-.4-.8-1ZM7,13.5c0-.6.4-1,.8-1h8.4c.4,0,.8.4.8,1s-.4,1-.8,1H7.8c-.4,0-.8-.4-.8-1ZM7,17.5c0-.6.4-1,.8-1h8.4c.4,0,.8.4.8,1s-.4,1-.8,1H7.8c-.4,0-.8-.4-.8-1Z"/>
</svg>