<svg  xmlns="http://www.w3.org/2000/svg" viewBox="0 0 512 512">
  <path d="M149.3,128h341.3c11.8,0,21.3-9.6,21.3-21.3s-9.6-21.3-21.3-21.3H149.3c-11.8,0-21.3,9.6-21.3,21.3s9.6,21.3,21.3,21.3Z"/>
  <path d="M490.7,234.7H149.3c-11.8,0-21.3,9.6-21.3,21.3s9.6,21.3,21.3,21.3h341.3c11.8,0,21.3-9.6,21.3-21.3s-9.6-21.3-21.3-21.3Z"/>
  <path d="M490.7,384H149.3c-11.8,0-21.3,9.6-21.3,21.3s9.6,21.3,21.3,21.3h341.3c11.8,0,21.3-9.6,21.3-21.3s-9.6-21.3-21.3-21.3Z"/>
    <path d="M57.3,148h-25v-49.3H12.8v-17c13.2-.2,22.8-4.8,25.6-19.4h19v85.8Z"/>
    <path d="M7.7,298c-.5-9.8,3.4-17,10.1-24,14.2-14.8,36.4-20.5,36.4-34.6s-5.2-8.5-10.2-8.5c-9.6,0-12.4,8-12.2,16.2H9.3c.4-24.8,13.9-34.9,35.9-34.9s34,7.7,34,27.4-11.4,21-22.4,27.8c-6.1,3.8-12.6,7.1-17,10.2h39.2v20.4H7.7Z"/>
    <path d="M28.7,418.6c-.1,3.8,1,7,3,9.1s5.2,3.4,9,3.4c7.3,0,11.2-4.9,11.2-9.8,0-9.7-9.6-9.4-15.6-9.4v-14.8c5.9.5,14.9-.7,14.9-8.6s-4.9-7.6-9.8-7.6-10.2,3-10.9,9H7.8c.8-19.4,16.6-27.7,34.2-27.7s32.5,9.2,32.5,23.6-3,13.3-9.8,16.7c7.7,3,12.1,9.4,12.1,17.6,0,19.7-14.8,29.6-37.4,29.6s-34.6-10.2-34.2-31.2h23.5Z"/>
</svg>